<svg width="29" height="28" viewBox="0 0 29 28" fill="none" xmlns="http://www.w3.org/2000/svg">
<path fill-rule="evenodd" clip-rule="evenodd" d="M14.2969 0C22.0289 0 28.2969 6.26801 28.2969 14C28.2969 21.732 22.0289 28 14.2969 28C6.56489 28 0.296875 21.732 0.296875 14C0.296875 6.26801 6.56489 0 14.2969 0ZM6.85354 16.6444L5.35865 16.8257V17.8889H10.1163V16.8272L8.62221 16.6444V9.04867L5.33999 9.64444V10.6556H6.85354V16.6444ZM16.3448 12.5596C16.5811 12.2149 16.7042 11.8053 16.6971 11.3874H16.6994C16.7187 11.0438 16.6585 10.7003 16.5236 10.3836C16.3887 10.0669 16.1828 9.78551 15.9217 9.56122C15.3401 9.10878 14.616 8.87925 13.88 8.91411C13.1458 8.87846 12.4233 9.10816 11.8445 9.56122C11.5851 9.78653 11.3806 10.0683 11.2469 10.3848C11.1131 10.7014 11.0537 11.0443 11.073 11.3874C11.0658 11.8043 11.1866 12.2134 11.4191 12.5596C11.6597 12.9086 11.9925 13.1841 12.3804 13.3552C11.9405 13.5313 11.5572 13.8245 11.2721 14.203C11.0023 14.57 10.8602 15.0153 10.8677 15.4708C10.8473 15.8289 10.9124 16.1867 11.0577 16.5146C11.2029 16.8426 11.4241 17.1313 11.703 17.3569C12.3343 17.8202 13.1055 18.053 13.8878 18.0164C14.6679 18.0535 15.437 17.8205 16.0655 17.3569C16.3435 17.1307 16.5639 16.8418 16.7086 16.514C16.8533 16.1861 16.9181 15.8286 16.8978 15.4708C16.9041 15.0163 16.7612 14.5723 16.491 14.2069C16.2048 13.8271 15.8202 13.5329 15.3788 13.356C15.7669 13.1828 16.1008 12.9076 16.3448 12.5596ZM15.0507 14.8366C15.1107 15.0004 15.1373 15.1745 15.1291 15.3487C15.1385 15.5229 15.1131 15.6973 15.0542 15.8616C14.9953 16.0259 14.9041 16.1768 14.7861 16.3053C14.5405 16.5311 14.219 16.6564 13.8854 16.6564C13.5518 16.6564 13.2304 16.5311 12.9848 16.3053C12.8672 16.1766 12.7765 16.0256 12.718 15.8613C12.6595 15.6971 12.6344 15.5228 12.6441 15.3487C12.6273 14.9981 12.7497 14.655 12.9848 14.3943C13.1 14.2751 13.2391 14.1816 13.393 14.12C13.5468 14.0583 13.712 14.0299 13.8777 14.0366C14.0447 14.0305 14.2111 14.0593 14.3665 14.121C14.5218 14.1827 14.6626 14.2761 14.7799 14.3951C14.8987 14.5228 14.9908 14.6729 15.0507 14.8366ZM14.6399 10.6104C14.8365 10.851 14.9373 11.1557 14.923 11.466V11.4707C14.9399 11.7872 14.8415 12.0992 14.6461 12.3488C14.5477 12.4515 14.4296 12.5332 14.2988 12.589C14.168 12.6449 14.0273 12.6736 13.885 12.6736C13.7428 12.6736 13.6021 12.6449 13.4713 12.589C13.3405 12.5332 13.2224 12.4515 13.124 12.3488C12.931 12.0978 12.8342 11.786 12.851 11.4699C12.8339 11.1583 12.9297 10.8509 13.1209 10.6042C13.2146 10.4972 13.3314 10.4128 13.4625 10.3576C13.5936 10.3023 13.7356 10.2776 13.8777 10.2853C14.0209 10.279 14.1638 10.3049 14.2958 10.3612C14.4277 10.4174 14.5453 10.5026 14.6399 10.6104ZM23.5999 12.9547H21.4182V10.5607H19.7351V12.9547H17.5355V14.4861H19.7351V17.0014H21.4182V14.4861H23.5999V12.9547Z" fill="white"/>
</svg>
