<?xml version="1.0" encoding="UTF-8"?>
<svg id="Layer_1" data-name="Layer 1" xmlns="http://www.w3.org/2000/svg" version="1.1" viewBox="0 0 24 24">
  <defs>
    <style>
      .cls-1 {
        fill: #ff7a50;
        stroke-width: 0px;
      }
    </style>
  </defs>
  <path class="cls-1" d="M20.7,7c-1.2-2.1-3.1-3.7-5.4-4.5-2.3-.8-4.8-.7-7,.2-2.2.9-4.1,2.6-5.1,4.8-1.1,2.2-1.3,4.7-.7,7,.6,2.3,2.1,4.4,4.1,5.7,2,1.3,4.5,1.9,6.9,1.6,2.4-.3,4.6-1.5,6.2-3.3,1.6-1.8,2.5-4.2,2.5-6.6,0-1.8-.5-3.5-1.3-5ZM12.7,3.5c1.2.1,2.4.5,3.5,1.1,1.1.6,2,1.5,2.7,2.5l-2.2,1.3c-.5-.6-1.1-1.2-1.8-1.6-.7-.4-1.5-.7-2.2-.8v-2.5ZM15.9,9.8c.4.7.6,1.5.6,2.2,0,.8-.2,1.5-.6,2.2-.4.7-1,1.2-1.6,1.6-.7.4-1.4.6-2.2.6h0c-1.2,0-2.3-.5-3.2-1.3-.8-.8-1.3-2-1.3-3.2,0-.8.2-1.6.6-2.2.4-.7,1-1.3,1.7-1.7.7-.4,1.5-.6,2.3-.6.8,0,1.6.2,2.3.6.7.4,1.3,1,1.6,1.7ZM11.3,3.5v2.5c-.8,0-1.6.4-2.3.8-.7.4-1.3.9-1.8,1.6l-2.1-1.2c.7-1,1.6-1.9,2.7-2.5,1.1-.6,2.3-1,3.5-1.1ZM4.3,15.6c-.5-1.1-.8-2.3-.8-3.6s.3-2.5.8-3.6l2.1,1.2c-.3.7-.5,1.5-.5,2.4s.2,1.6.5,2.3l-2.2,1.2ZM5.1,16.9l2.2-1.2c.5.6,1.1,1.2,1.8,1.5.7.4,1.5.6,2.3.7v2.5c-1.2-.1-2.4-.5-3.5-1.1-1.1-.6-2-1.5-2.7-2.5ZM12.7,20.5v-2.6c1.6-.2,3-1,4-2.3l2.2,1.3c-.7,1-1.6,1.9-2.7,2.5-1.1.6-2.3,1-3.5,1.1ZM19.7,15.6l-2.2-1.3c.3-.7.5-1.5.5-2.3,0-.8-.1-1.5-.4-2.3l2.2-1.3c.5,1.1.8,2.3.8,3.6s-.3,2.5-.8,3.6Z"/>
</svg>