<svg width="21" height="19" viewBox="0 0 21 19" fill="none" xmlns="http://www.w3.org/2000/svg">
<path d="M20.1921 3.4635C20.1353 3.32645 20.0392 3.2093 19.9159 3.12686C19.7926 3.04443 19.6476 3.00041 19.4993 3.00038H16.6465C16.2476 2.3218 15.6799 1.75796 14.9987 1.3637C14.3174 0.969428 13.5457 0.758142 12.7586 0.750378C12.1723 0.742687 11.5902 0.852354 11.0469 1.07293C10.5035 1.2935 10.0097 1.62052 9.59458 2.03475C9.16733 2.45402 8.82823 2.95449 8.59719 3.50671C8.36616 4.05893 8.24787 4.65178 8.24927 5.25038V5.82132C4.47489 4.82569 1.3877 1.75538 1.35489 1.72257C1.25427 1.62105 1.12674 1.55041 0.987315 1.51895C0.84789 1.48749 0.702378 1.49652 0.567915 1.54499C0.433453 1.59345 0.315639 1.67933 0.228347 1.79251C0.141056 1.90569 0.087923 2.04145 0.0752046 2.18382C-0.328858 6.66413 0.972392 9.66225 2.1377 11.3882C2.7059 12.2414 3.39713 13.0059 4.18895 13.6569C2.76114 15.3004 0.513017 16.1638 0.488642 16.1732C0.382811 16.2128 0.287306 16.2759 0.209263 16.3576C0.13122 16.4393 0.0726568 16.5377 0.0379491 16.6452C0.00324146 16.7528 -0.006713 16.8668 0.00882926 16.9787C0.0243715 17.0906 0.0650086 17.1976 0.127704 17.2916C0.198017 17.3966 0.479267 17.7651 1.16645 18.1091C2.01583 18.5348 3.13802 18.7504 4.49927 18.7504C11.1246 18.7504 16.6605 13.6485 17.2258 7.08413L20.0299 4.281C20.1347 4.17606 20.2061 4.04237 20.235 3.89686C20.2639 3.75134 20.2489 3.60053 20.1921 3.4635ZM15.9733 6.22069C15.8447 6.34959 15.7674 6.52086 15.7558 6.70257C15.3743 12.6173 10.4318 17.2504 4.49927 17.2504C3.50927 17.2504 2.81177 17.1191 2.32239 16.9616C3.40145 16.3757 4.90614 15.3679 5.87364 13.9166C5.93043 13.8313 5.96912 13.7352 5.98732 13.6344C6.00553 13.5335 6.00287 13.4299 5.9795 13.3301C5.95613 13.2303 5.91255 13.1364 5.85145 13.0541C5.79035 12.9718 5.71303 12.9029 5.62427 12.8516C5.5802 12.8263 1.5077 10.3823 1.49927 3.85163C2.99927 5.07038 5.74145 6.96132 8.87458 7.48819C8.98196 7.5063 9.09199 7.5008 9.19703 7.47208C9.30208 7.44337 9.39961 7.39213 9.48284 7.32191C9.56608 7.2517 9.63303 7.16421 9.67904 7.06551C9.72505 6.96681 9.74901 6.85927 9.74927 6.75038V5.25038C9.74842 4.8503 9.82761 4.45409 9.98218 4.08508C10.1367 3.71606 10.3636 3.38168 10.6493 3.10163C10.9232 2.82722 11.2493 2.6105 11.6084 2.46429C11.9675 2.31808 12.3522 2.24535 12.7399 2.25038C13.9268 2.26538 15.0358 2.98913 15.4999 4.05132C15.5584 4.18486 15.6545 4.29846 15.7766 4.37821C15.8986 4.45797 16.0413 4.50042 16.1871 4.50038H17.6871L15.9733 6.22069Z" fill="white"/>
</svg>
