<?xml version="1.0" encoding="UTF-8"?>
<svg id="Layer_1" data-name="Layer 1" xmlns="http://www.w3.org/2000/svg" version="1.1" viewBox="0 0 24 24">
  <defs>
    <style>
      .cls-1 {
        fill: #fff;
        fill-rule: evenodd;
        stroke-width: 0px;
      }
    </style>
  </defs>
  <path class="cls-1" d="M15.2,2.5c2.3.8,4.2,2.4,5.4,4.5.9,1.5,1.3,3.2,1.3,5,0,2.4-.9,4.8-2.5,6.6-1.6,1.8-3.8,3-6.2,3.3-2.4.3-4.8-.3-6.9-1.6-2-1.3-3.5-3.4-4.1-5.7-.6-2.3-.4-4.8.7-7,1.1-2.2,2.9-3.9,5.1-4.8,2.2-.9,4.7-1,7-.2ZM16.2,4.6c-1.1-.6-2.3-1-3.5-1.1v2.5c.8.1,1.6.4,2.2.8.7.4,1.3.9,1.8,1.6l2.2-1.3c-.7-1-1.6-1.9-2.7-2.5ZM16.4,12c0-.8-.2-1.6-.6-2.2-.4-.7-1-1.3-1.6-1.7-.7-.4-1.5-.6-2.3-.6-.8,0-1.6.2-2.3.6-.7.4-1.3,1-1.7,1.7-.4.7-.6,1.5-.6,2.2,0,1.2.5,2.3,1.3,3.2.8.8,2,1.3,3.2,1.3h0c.8,0,1.5-.2,2.2-.6.7-.4,1.2-1,1.6-1.6.4-.7.6-1.4.6-2.2ZM11.2,6v-2.5c-1.2.1-2.4.5-3.5,1.1-1.1.6-2,1.5-2.7,2.5l2.1,1.2c.5-.6,1.1-1.2,1.8-1.6.7-.4,1.5-.7,2.3-.8ZM3.5,12c0,1.2.3,2.5.8,3.6l2.2-1.2c-.3-.7-.5-1.5-.5-2.3s.2-1.6.5-2.4l-2.1-1.2c-.5,1.1-.8,2.3-.8,3.6ZM7.2,15.6l-2.2,1.2c.7,1,1.6,1.9,2.7,2.5,1.1.6,2.3,1,3.5,1.1v-2.5c-.8,0-1.6-.3-2.3-.7-.7-.4-1.3-.9-1.8-1.5ZM12.8,17.9v2.6c1.2-.1,2.4-.5,3.5-1.1,1.1-.6,2-1.5,2.7-2.5l-2.2-1.3c-1,1.3-2.4,2.1-4,2.3ZM17.5,14.3l2.2,1.3c.5-1.1.8-2.3.8-3.6s-.3-2.5-.8-3.6l-2.2,1.3c.3.7.4,1.5.4,2.3,0,.8-.2,1.6-.5,2.3Z"/>
</svg>