<?xml version="1.0" encoding="UTF-8"?>
<svg id="Layer_1" data-name="Layer 1" xmlns="http://www.w3.org/2000/svg" version="1.1" viewBox="0 0 24 24">
  <defs>
    <style>
      .cls-1 {
        fill: #fff;
        stroke-width: 0px;
      }
    </style>
  </defs>
  <path class="cls-1" d="M20.7,7c-1.2-2.1-3.1-3.7-5.4-4.5-2.3-.8-4.8-.7-7,.2-2.2.9-4.1,2.6-5.1,4.8-1.1,2.2-1.3,4.7-.7,7,.6,2.3,2.1,4.4,4.1,5.7,2,1.3,4.5,1.9,6.9,1.6,2.4-.3,4.6-1.5,6.2-3.3,1.6-1.8,2.5-4.2,2.5-6.6,0-1.8-.5-3.5-1.3-5ZM19.7,8.4c.4.9.7,1.8.8,2.8h-2.6c0-.5-.2-1-.4-1.5l2.2-1.3ZM16.8,5c.8.6,1.5,1.3,2.1,2.1l-2.2,1.3c-.3-.5-.7-.9-1.2-1.2l1.2-2.2ZM12.8,3.5c1,0,1.9.3,2.8.7l-1.2,2.2c-.5-.2-1-.4-1.5-.4v-2.5ZM11.3,3.5v2.5c-.6,0-1.1.2-1.6.4l-1.2-2.1c.9-.4,1.9-.7,2.8-.8ZM7.1,5.1l1.2,2.1c-.4.3-.8.7-1.2,1.2l-2.1-1.2c.6-.8,1.3-1.5,2.1-2.1ZM4.3,8.4l2.1,1.2c-.2.5-.3,1-.4,1.6h-2.5c0-1,.3-1.9.8-2.8ZM4.3,15.6c-.4-.9-.7-1.9-.8-2.9h2.5c0,.6.2,1.1.4,1.6l-2.2,1.2ZM7.1,18.9c-.8-.6-1.5-1.2-2-2l2.2-1.2c.3.4.7.8,1.1,1.1l-1.3,2.2ZM11.3,20.5c-1,0-2-.4-2.9-.8l1.3-2.2c.5.2,1.1.4,1.6.4v2.5ZM12,16.5h0c-.8,0-1.5-.2-2.2-.6-.7-.4-1.2-.9-1.6-1.6-.3-.5-.5-1-.6-1.6,0-.5,0-1,0-1.5.2-1.1.7-2,1.6-2.7.4-.3.8-.6,1.3-.7.5-.2,1.1-.3,1.6-.3.5,0,1,.1,1.5.3.5.2.9.4,1.3.8.4.4.8.8,1.1,1.3.3.4.4.9.5,1.4,0,.5,0,1,0,1.5,0,.5-.3,1-.6,1.5-.3.5-.6.9-1,1.2-.4.3-.8.6-1.3.8-.5.2-1,.3-1.5.3ZM12.8,20.5v-2.6c.5,0,1-.2,1.5-.4l1.3,2.2c-.9.4-1.8.7-2.8.8ZM16.9,19l-1.3-2.2c.4-.3.8-.7,1.1-1.1l2.2,1.3c-.6.8-1.3,1.5-2.1,2.1ZM19.7,15.6l-2.2-1.3c.2-.5.4-1,.4-1.6h2.6c0,1-.3,2-.8,2.9Z"/>
  <path class="cls-1" d="M14.1,13.1c.1.1.2.3.2.5s0,.4-.2.5c0,0-.2.1-.2.2,0,0-.2,0-.3,0,0,0-.2,0-.3,0,0,0-.2,0-.2-.2l-1.1-1.1-1.1,1.1c-.1.1-.3.2-.5.2s-.4,0-.5-.2c-.1-.1-.2-.3-.2-.5s0-.4.2-.5l1.1-1.1-1.1-1.1c-.1-.1-.2-.3-.2-.5s0-.4.2-.5c0,0,.2-.1.2-.2,0,0,.2,0,.3,0s.2,0,.3,0c0,0,.2,0,.2.2l1.1,1.1,1.1-1.1c.1-.1.3-.2.5-.2.2,0,.4,0,.5.2.1.1.2.3.2.5,0,.2,0,.4-.2.5l-1.1,1.1,1.1,1.1Z"/>
</svg>