<?xml version="1.0" encoding="UTF-8"?>
<svg id="Layer_1" data-name="Layer 1" xmlns="http://www.w3.org/2000/svg" version="1.1" viewBox="0 0 24 24">
  <defs>
    <style>
      .cls-1 {
        fill: #fff;
        stroke-width: 0px;
      }
    </style>
  </defs>
  <path class="cls-1" d="M8,18l4-3.1,4,3.1-1.6-4.9,4-2.8h-4.9l-1.5-5.1-1.6,5.1h-4.9l4,2.8-1.6,4.9ZM12,22c-1.3,0-2.7-.3-3.9-.8-2.4-1-4.3-2.9-5.3-5.3-.5-1.2-.8-2.5-.8-3.9,0-1.3.3-2.7.8-3.9.5-1.2,1.2-2.3,2.1-3.2.9-.9,2-1.6,3.2-2.1,1.2-.5,2.5-.8,3.9-.8,1.3,0,2.7.3,3.9.8,2.4,1,4.3,2.9,5.3,5.3.5,1.2.8,2.6.8,3.9,0,1.3-.3,2.7-.8,3.9-.5,1.2-1.2,2.3-2.1,3.2-.9.9-2,1.6-3.2,2.2-1.2.5-2.6.8-3.9.8h0ZM12,20.5c1.1,0,2.2-.2,3.3-.6,1-.4,2-1.1,2.8-1.9.8-.8,1.4-1.7,1.9-2.8.4-1,.6-2.1.6-3.3,0-1.1-.2-2.2-.6-3.3-.4-1-1.1-2-1.9-2.8-.8-.8-1.7-1.4-2.8-1.9-1-.4-2.1-.6-3.3-.6-1.1,0-2.2.2-3.3.6-1,.4-2,1.1-2.7,1.9-.8.8-1.4,1.7-1.9,2.8-.4,1-.6,2.2-.6,3.3,0,1.1.2,2.2.6,3.3.4,1,1.1,2,1.9,2.7.8.8,1.7,1.4,2.7,1.9,1,.4,2.1.6,3.3.6Z"/>
</svg>