<?xml version="1.0" encoding="UTF-8"?>
<svg id="Layer_1" data-name="Layer 1" xmlns="http://www.w3.org/2000/svg" version="1.1" viewBox="0 0 24 24">
  <defs>
    <style>
      .cls-1 {
        fill: #fff;
        stroke-width: 0px;
      }
    </style>
  </defs>
  <path class="cls-1" d="M4.7,10.2l2.7,1.1c.3-.6.6-1.2,1-1.8.3-.6.7-1.1,1.1-1.7l-2-.4-2.7,2.7ZM8.6,12.2l3.3,3.3c.9-.4,1.8-.9,2.7-1.5.7-.5,1.4-1,2-1.6,1.2-1.2,2.2-2.6,3-4.2.7-1.5,1-3.1,1-4.8-1.7,0-3.3.4-4.8,1-1.6.7-3,1.7-4.1,3-.6.6-1.1,1.3-1.6,2-.6.9-1.1,1.7-1.5,2.7ZM14.3,9.8c-.2-.2-.3-.4-.4-.6,0-.2-.1-.4-.1-.7,0-.5.2-.9.5-1.2.3-.3.8-.5,1.2-.5s.9.2,1.2.5c.3.3.5.8.5,1.2,0,.3-.1.7-.3,1s-.5.5-.8.6c-.3.1-.7.2-1,.1-.3,0-.6-.2-.9-.5ZM13.9,19.4l2.7-2.7-.4-2c-.5.4-1.1.7-1.7,1.1s-1.2.7-1.8,1l1.1,2.6ZM22.1,2c.2,2.1-.1,4.2-.8,6.2-.8,2-2,3.8-3.6,5.3h0s0,0,0,0l.6,2.8c0,.2,0,.5,0,.7,0,.2-.2.5-.4.6l-4.3,4.3-2.1-4.9-4.2-4.2-5-2.1,4.3-4.3c.2-.2.4-.3.6-.4.2,0,.5,0,.7,0l2.7.6s0,0,0,0c0,0,0,0,0,0,1.5-1.5,3.3-2.8,5.3-3.6,2-.7,4.1-1,6.2-.9h0ZM3.8,15.8c.3-.3.6-.5,1-.7.4-.2.8-.2,1.2-.2.4,0,.8,0,1.2.2.4.1.7.4,1,.7.3.3.5.6.7,1,.1.4.2.8.2,1.2,0,.4,0,.8-.2,1.2-.2.4-.4.7-.7,1-.6.5-1.3.9-2,1.1-1.3.4-2.7.6-4.1.8.2-1.4.4-2.8.8-4.1.2-.8.6-1.4,1.1-2h0ZM4.8,16.9c-.3.3-.5.7-.6,1.2-.2.7-.4,1.4-.5,2,.7-.1,1.4-.3,2.1-.5.4-.1.8-.3,1.2-.6.2-.1.3-.3.4-.5,0-.2.1-.4.1-.6,0-.2,0-.4-.1-.6,0-.2-.2-.4-.3-.5-.1-.1-.3-.3-.5-.3-.2,0-.4-.1-.6-.1-.2,0-.4,0-.6.1-.2,0-.3.2-.5.4h0Z"/>
</svg>